<?xml version="1.0" encoding="UTF-8"?>
<svg height="16px" viewBox="0 0 16 16" width="16px" xmlns="http://www.w3.org/2000/svg">
    <g fill="#2e3436">
        <path d="m 0 4 v 11 h 2 v -2 h 12 v 2 h 2 v -7 c 0 -1.109375 -0.890625 -2 -2 -2 h -6 v 4 h -6 v -6 z m 5 1 c -1.105469 0 -2 0.894531 -2 2 s 0.894531 2 2 2 s 2 -0.894531 2 -2 s -0.894531 -2 -2 -2 z m 0 0"/>
        <path d="m 7.050781 2.304688 c 0.253907 0 0.460938 0.207031 0.460938 0.464843 c 0 0.253907 -0.207031 0.460938 -0.460938 0.460938 c -0.253906 0 -0.460937 -0.207031 -0.460937 -0.460938 c 0 -0.257812 0.207031 -0.464843 0.460937 -0.464843 z m 0 0"/>
        <path d="m 12.585938 0.921875 c 0.253906 0 0.460937 0.207031 0.460937 0.460937 v 2.769532 c 0 0.253906 -0.207031 0.460937 -0.460937 0.460937 c -0.253907 0 -0.460938 -0.207031 -0.460938 -0.460937 v -2.769532 c 0 -0.253906 0.207031 -0.460937 0.460938 -0.460937 z m 0 0"/>
        <path d="m 11.203125 1.84375 c 0.253906 0 0.460937 0.207031 0.460937 0.460938 v 0.925781 c 0 0.253906 -0.207031 0.460937 -0.460937 0.460937 s -0.460937 -0.207031 -0.460937 -0.460937 v -0.925781 c 0 -0.253907 0.207031 -0.460938 0.460937 -0.460938 z m 0 0"/>
        <path d="m 9.820312 0 c 0.253907 0 0.460938 0.207031 0.460938 0.460938 v 4.613281 c 0 0.253906 -0.207031 0.460937 -0.460938 0.460937 c -0.253906 0 -0.460937 -0.207031 -0.460937 -0.460937 v -4.613281 c 0 -0.253907 0.207031 -0.460938 0.460937 -0.460938 z m 0 0"/>
        <path d="m 8.433594 1.382812 c 0.253906 0 0.464844 0.207032 0.464844 0.460938 v 1.847656 c 0 0.253906 -0.210938 0.460938 -0.464844 0.460938 s -0.460938 -0.207032 -0.460938 -0.460938 v -1.847656 c 0 -0.253906 0.207032 -0.460938 0.460938 -0.460938 z m 0 0"/>
    </g>
</svg>
