<?xml version="1.0" encoding="UTF-8"?>
<svg height="128px" viewBox="0 0 128 128" width="128px" xmlns="http://www.w3.org/2000/svg" xmlns:xlink="http://www.w3.org/1999/xlink">
    <linearGradient id="a" gradientTransform="matrix(0.196428 0 0 0.342105 2.597321 273.740051)" gradientUnits="userSpaceOnUse" x1="88.595886" x2="536.595886" y1="-449.394012" y2="-449.394012">
        <stop offset="0" stop-color="#6e4333"/>
        <stop offset="0.0500001" stop-color="#a3634c"/>
        <stop offset="0.099807" stop-color="#6e4333"/>
        <stop offset="0.900001" stop-color="#6e4333"/>
        <stop offset="0.950001" stop-color="#a3634c"/>
        <stop offset="1" stop-color="#6e4333"/>
    </linearGradient>
    <path d="m 28 16 h 72 c 4.417969 0 8 3.582031 8 8 v 88 c 0 4.417969 -3.582031 8 -8 8 h -72 c -4.417969 0 -8 -3.582031 -8 -8 v -88 c 0 -4.417969 3.582031 -8 8 -8 z m 0 0" fill="url(#a)"/>
    <path d="m 28 8 h 72 c 4.417969 0 8 3.582031 8 8 v 92 c 0 4.417969 -3.582031 8 -8 8 h -72 c -4.417969 0 -8 -3.582031 -8 -8 v -92 c 0 -4.417969 3.582031 -8 8 -8 z m 0 0" fill="#deddda"/>
    <path d="m 46.132812 13.238281 h 35.734376 c 4.433593 0 8 3.570313 8 8 v 7.875 c 0 4.429688 -3.566407 8 -8 8 h -35.734376 c -4.433593 0 -8 -3.570312 -8 -8 v -7.875 c 0 -4.429687 3.566407 -8 8 -8 z m 0 0" fill="#6c6c6c"/>
    <path d="m 46.132812 12.496094 h 35.734376 c 4.433593 0 8 3.566406 8 8 v 7.871094 c 0 4.433593 -3.566407 8 -8 8 h -35.734376 c -4.433593 0 -8 -3.566407 -8 -8 v -7.871094 c 0 -4.433594 3.566407 -8 8 -8 z m 0 0" fill="#ffffff"/>
    <path d="m 71.265625 33.789062 c -2.011719 1.777344 -4.375 2.578126 -7.265625 2.578126 c -2.886719 0 -5.265625 -0.824219 -7.277344 -2.601563 c -3.15625 1.035156 -6.933594 3.667969 -6.933594 8.257813 l -0.011718 8.566406 c 0 1.574218 1.269531 2.84375 2.847656 2.84375 h 22.753906 c 1.574219 0 2.84375 -1.269532 2.84375 -2.84375 v -8.535156 c 0 -3.945313 -3.132812 -7.265626 -6.957031 -8.265626 z m 0 0" fill="#241f31"/>
    <path d="m 72.53125 24.988281 c 0 4.710938 -3.820312 8.535157 -8.53125 8.535157 s -8.53125 -3.824219 -8.53125 -8.535157 c 0 -4.710937 3.820312 -8.53125 8.53125 -8.53125 s 8.53125 3.820313 8.53125 8.53125 z m 0 0" fill="#241f31"/>
    <path d="m 28 38.039062 h 72 c 4.433594 0 8 3.570313 8 8 v 61.960938 c 0 4.433594 -3.566406 8 -8 8 h -72 c -4.433594 0 -8 -3.566406 -8 -8 v -61.960938 c 0 -4.429687 3.566406 -8 8 -8 z m 0 0" fill="#e01b24"/>
    <path d="m 51.234375 65.871094 c -0.882813 0 -1.59375 0.710937 -1.59375 1.59375 v 9.476562 c 0 6.28125 4.011719 11.566406 9.574219 13.558594 v 4.089844 h -6.382813 c -1.796875 0 -3.191406 1.558594 -3.191406 3.191406 v 3.191406 h 28.71875 v -3.191406 c 0 -1.871094 -1.519531 -3.191406 -3.191406 -3.191406 h -6.382813 v -4.089844 c 5.5625 -1.992188 9.574219 -7.277344 9.574219 -13.558594 v -9.476562 c 0 -0.882813 -0.710937 -1.59375 -1.59375 -1.59375 c -0.886719 0 -1.597656 0.710937 -1.597656 1.59375 c 0 0.226562 0.027343 0.414062 0.101562 0.597656 v 8.878906 c 0 6.269532 -5.035156 11.265625 -11.269531 11.265625 s -11.167969 -4.996093 -11.167969 -11.265625 v -9.476562 c 0 -0.882813 -0.710937 -1.59375 -1.597656 -1.59375 z m 12.765625 -12.800782 c 4.425781 0 7.976562 3.550782 7.976562 7.976563 v 15.992187 c 0 4.425782 -3.550781 7.976563 -7.976562 7.976563 s -7.976562 -3.550781 -7.976562 -7.976563 v -15.992187 c 0 -4.425781 3.550781 -7.976563 7.976562 -7.976563 z m 0 0" fill="#241f31"/>
</svg>
